<svg id="Layer_1" data-name="Layer 1" xmlns="http://www.w3.org/2000/svg" viewBox="0 0 1200 1200"><defs><style>.cls-1{fill:#231f20;}.cls-2{fill:#fff;}.cls-3{fill:#fbb040;}</style></defs><title>Artboard 5</title><path class="cls-1" d="M203.26,588.7s136.6,171.51.12,171.61S203.26,588.7,203.26,588.7Z"/><path class="cls-1" d="M191.79,760.32s5.87-105.46,96.23-154C288,606.36,368.54,665.44,191.79,760.32Z"/><path class="cls-1" d="M214.2,760.3S211.71,654.69,123,603.08C123,603.08,40.59,659.33,214.2,760.3Z"/><path class="cls-1" d="M191.79,760.32s51.67-91,153.35-91C345.14,669.3,390.7,760.17,191.79,760.32Z"/><path class="cls-1" d="M214.2,760.3s-51.8-90.87-153.49-90.8C60.71,669.5,15.29,760.44,214.2,760.3Z"/><path class="cls-2" d="M338.67,738.12l.11,144.94a62.75,62.75,0,0,1-62.7,62.78l-145.91.1a62.33,62.33,0,0,1-27.7-6.42A60.85,60.85,0,0,1,93.36,934a62.54,62.54,0,0,1-26-50.78l-.1-144.93Z"/><path class="cls-1" d="M130.12,946.45A62.56,62.56,0,0,1,102.24,940a61.64,61.64,0,0,1-9.18-5.54,63.34,63.34,0,0,1-26.19-51.19l-.11-144.93a.51.51,0,0,1,.15-.36.51.51,0,0,1,.36-.15l271.4-.2h0a.51.51,0,0,1,.51.51l.11,144.94a63.27,63.27,0,0,1-63.21,63.29l-145.91.1ZM67.79,738.83l.1,144.42a62.33,62.33,0,0,0,25.77,50.36,60.25,60.25,0,0,0,9,5.45,61.37,61.37,0,0,0,27.42,6.37h0l145.91-.1a62.24,62.24,0,0,0,62.19-62.27l-.11-144.43Z"/><path class="cls-2" d="M103.61,862.1c-10.28,31.6-10.66,57.58-1.14,77.42A60.85,60.85,0,0,1,93.36,934C86.64,914,88,889.2,97.5,860.11c15.67-48.14,6.74-91.18-5.8-121.8h6.92C111.07,769.84,119.45,813.42,103.61,862.1Z"/><path class="cls-1" d="M102.47,940a.54.54,0,0,1-.22,0,61.24,61.24,0,0,1-9.19-5.54.53.53,0,0,1-.19-.25C86.14,914.07,87.53,889.09,97,860c16.08-49.42,5.73-93.32-5.79-121.44a.49.49,0,0,1,0-.48.5.5,0,0,1,.42-.23h6.92a.53.53,0,0,1,.48.32c11.35,28.74,21.43,73.61,5,124.14-10.22,31.42-10.61,57.34-1.16,77a.51.51,0,0,1-.46.73Zm-8.68-6.32a60.28,60.28,0,0,0,7.6,4.69c-8.93-19.77-8.34-45.48,1.73-76.46h0c16.29-50,6.39-94.52-4.85-123.12H92.46C103.93,767.13,114,811,98,860.26,88.6,889.12,87.18,913.83,93.79,933.71Z"/><path class="cls-2" d="M185,920.46c7.68,9.83,13.64,18.28,18.28,25.44h-7.69c-4.15-6.2-9.29-13.34-15.65-21.49-17.26-22.14-5.65-62.16,4.61-97.45,7.47-25.69,14.53-50,7.75-59.22-2-2.71-5.26-4.09-10-4.2-7.57-.2-12.46,1.07-15,3.91-4,4.55-2.62,14.22-1,25.4,2.9,19.87,6.88,47.09-15.85,70.46-16.93,17.42-20.82,42-11.54,73,1,3.34,2.11,6.57,3.27,9.68h-6.83c-.9-2.49-1.75-5.06-2.55-7.69-9.91-33-5.4-60.45,13-79.41,20.52-21.11,17-45.49,14.09-65.07-1.87-12.78-3.48-23.8,2.54-30.59,3.85-4.34,10.37-6.32,20-6.07,6.8.17,11.86,2.47,15,6.83,8.62,11.81,1.49,36.37-6.77,64.81C180.88,862.57,169.74,900.9,185,920.46Z"/><path class="cls-1" d="M135.35,946.46a.51.51,0,0,1-.48-.34c-.89-2.47-1.75-5.06-2.56-7.71-10-33.18-5.41-60.82,13.18-79.92,20.34-20.93,16.8-45.17,13.95-64.64-1.89-12.9-3.52-24,2.65-31,3.95-4.45,10.61-6.49,20.35-6.24,7,.18,12.17,2.54,15.45,7,8.78,12,1.61,36.68-6.69,65.25-9.8,33.72-20.89,71.9-5.8,91.25h0c7,9,13.18,17.57,18.3,25.47a.51.51,0,0,1,0,.52.52.52,0,0,1-.45.27h-7.69a.5.5,0,0,1-.42-.22c-4.51-6.73-9.77-14-15.64-21.47-17.43-22.36-5.76-62.49,4.53-97.9,7.44-25.59,14.45-49.73,7.83-58.78-1.88-2.58-5-3.88-9.63-4-7.4-.2-12.18,1-14.59,3.74-3.88,4.37-2.48,13.91-.86,25,2.92,20,6.92,47.35-16,70.91C134,881,130.18,905.32,139.4,936.12c.94,3.11,2,6.36,3.26,9.64a.52.52,0,0,1-.06.47.51.51,0,0,1-.42.22Zm45.5-188.85c-8.57,0-14.46,1.94-18,5.92-5.86,6.61-4.26,17.53-2.41,30.17,2.88,19.7,6.47,44.21-14.23,65.5-18.31,18.82-22.78,46.11-12.93,78.91.76,2.51,1.57,5,2.42,7.33h5.74c-1.13-3.07-2.15-6.1-3-9-9.33-31.17-5.41-55.89,11.67-73.45,22.55-23.2,18.59-50.27,15.7-70-1.66-11.32-3.09-21.08,1.11-25.81,2.62-3,7.65-4.28,15.38-4.08,4.93.11,8.34,1.56,10.43,4.41,6.91,9.45-.17,33.83-7.67,59.63-10.23,35.21-21.82,75.08-4.71,97,5.81,7.45,11,14.61,15.52,21.3h6.48c-5-7.66-11-15.94-17.74-24.61h0c-15.41-19.76-4.24-58.21,5.62-92.14,8.23-28.33,15.33-52.78,6.86-64.39-3.09-4.22-8-6.45-14.66-6.62C181.88,757.61,181.36,757.61,180.85,757.61Z"/><path class="cls-2" d="M251.16,883a565.2,565.2,0,0,1-18.09,62.91h-6.85c18.29-52.12,45.84-152.84,9.22-207.68h7.63C262.61,770.43,265.34,819,251.16,883Z"/><path class="cls-1" d="M226.22,946.39a.51.51,0,0,1-.42-.21.53.53,0,0,1-.07-.47c8.94-25.45,20.56-63.93,25.18-102.71,5.42-45.44.07-80.6-15.9-104.51a.53.53,0,0,1,0-.53.52.52,0,0,1,.45-.27h7.63a.48.48,0,0,1,.43.25c19.6,32.32,22.34,81.15,8.16,145.14h0a562.77,562.77,0,0,1-18.11,63,.5.5,0,0,1-.48.35Zm10.17-207.68c15.7,24.1,20.93,59.23,15.54,104.41-4.6,38.53-16.08,76.75-25,102.25h5.77a560.72,560.72,0,0,0,17.95-62.51h0c14.09-63.56,11.44-112.06-7.88-144.15Z"/><path class="cls-2" d="M267.16,945.85h-7.29a232.84,232.84,0,0,0,23.78-62.29c6.75-29.3,8.93-61.63,6.48-96.11a431,431,0,0,0-6.46-49.29h6.52A438.83,438.83,0,0,1,296.53,787C299.72,831.77,296.23,892,267.16,945.85Z"/><path class="cls-1" d="M259.87,946.37a.51.51,0,0,1-.45-.76,233,233,0,0,0,23.74-62.16c6.73-29.26,8.91-61.54,6.46-96a428.5,428.5,0,0,0-6.46-49.22.56.56,0,0,1,.11-.42.51.51,0,0,1,.4-.19h6.52a.51.51,0,0,1,.5.42A438.74,438.74,0,0,1,297,787c3,42.15.33,104-29.43,159.12a.5.5,0,0,1-.45.27Zm24.41-207.69a428.85,428.85,0,0,1,6.36,48.74c2.46,34.52.27,66.9-6.49,96.26a234.46,234.46,0,0,1-23.41,61.67h6.12C296.37,890.47,299,829,296,787a435.39,435.39,0,0,0-6.26-48.36Z"/><path class="cls-2" d="M338.74,828.19v17.24A408.1,408.1,0,0,1,287.39,934c-3.23,4.22-6.4,8.18-9.46,11.85h-8.55A398.72,398.72,0,0,0,338.74,828.19Z"/><path class="cls-1" d="M269.38,946.36a.51.51,0,0,1-.39-.84A399.66,399.66,0,0,0,338.26,828a.51.51,0,0,1,1,.18v17.24a.45.45,0,0,1,0,.2,411.81,411.81,0,0,1-51.43,88.67c-3.06,4-6.24,8-9.46,11.87a.5.5,0,0,1-.4.18ZM338.23,831a401,401,0,0,1-67.74,114.38h7.2c3.16-3.81,6.29-7.73,9.29-11.65a410.63,410.63,0,0,0,51.26-88.35Z"/><path class="cls-2" d="M222.32,723.05l-.74-.71c27.8-28.71,73.91-45.86,74.37-46l.36,1C295.85,677.44,250,694.51,222.32,723.05Z"/><path class="cls-2" d="M201.42,716l-.95-.38c13.53-33.75,39-71,39.25-71.38l.84.58C240.31,645.19,214.91,682.35,201.42,716Z"/><path class="cls-2" d="M199.3,695.58c-1.11-19.85-31.11-53.58-31.41-53.92l.76-.68A236,236,0,0,1,184,660.55c10.34,14.71,15.82,26.48,16.29,35Z"/><path class="cls-2" d="M186.25,725.68c-13-25.49-71-46.37-71.58-46.58l.34-1c.59.2,59,21.23,72.14,47.07Z"/><path class="cls-2" d="M674.65,532.51h397.88s15.75-119.14-95.77-66.89c0,0-10.8-80.55-118.47-80.55-94,0-120.87,97.76-120.87,97.76S668,469.8,674.65,532.51Z"/><path class="cls-1" d="M1072.53,533H674.65a.52.52,0,0,1-.51-.46c-1.84-17.45,2-30.73,11.48-39.46s23.17-11.27,32.9-11.78a91.51,91.51,0,0,1,18.53.93,165.31,165.31,0,0,1,25.15-48.61c16.93-22.39,47.33-49.08,96.09-49.08,30.81,0,73.17,7,100,40.47a93.12,93.12,0,0,1,18.85,39.84c33.24-15.45,58.47-17.15,75-5.05,27.5,20.13,21,72.23,20.9,72.76A.52.52,0,0,1,1072.53,533Zm-397.42-1h397c.57-5.11,5.13-52.56-20.54-71.36-16.3-11.93-41.39-10.1-74.57,5.44a.5.5,0,0,1-.46,0,.52.52,0,0,1-.26-.38c0-.2-2.88-20.27-18.78-40.07-26.59-33.09-68.61-40-99.18-40C810,385.58,779.82,412,763,434.23A162.67,162.67,0,0,0,737.91,483a.51.51,0,0,1-.59.36,89.12,89.12,0,0,0-18.77-1c-9.56.5-22.91,2.91-32.24,11.51C677.19,502.28,673.42,515.11,675.11,532Z"/><path class="cls-1" d="M397.17,946l18.51-87.56H258.58l9.26-44L480.47,586.71h38L469,819.11h52.78l-8.26,39.28H460.71L442.2,946Zm26-126.84,34.52-162.35L308.36,819.11Z"/><path class="cls-1" d="M803.64,632.71Q818.4,677,801.89,754q-15.52,73.05-47.53,120.83-46,68.55-117.58,68.54-64.54,0-84-56-16.28-46.78.5-125.58,12.75-61,38-104.82Q638,575.42,715.33,575.43,784.87,575.43,803.64,632.71ZM753.11,755.79q12.75-61,6.12-100.44T709.33,616q-39.78,0-66.05,37.4t-41.77,110.2q-11.76,54.78-7,88.05,7.26,50.79,50.79,50.79,35,0,62.41-31T753.11,755.79Z"/><path class="cls-1" d="M941.42,946l18.51-87.56H802.83l9.26-44,212.63-227.65h38l-49.53,232.4H1066l-8.25,39.28H1005L986.45,946Zm26-126.84L1002,656.76,852.61,819.11Z"/><path class="cls-2" d="M603.09,447.86s-23.54-145.77-119.87-49.44c0,0-16.89-86.53-125.62-86.53s-106.6,136-106.6,136Z"/><path class="cls-1" d="M603.09,448.38H251a.53.53,0,0,1-.51-.51c0-.69-.64-70.06,38.08-109.4,17.69-18,40.92-27.09,69-27.09,56.36,0,87.65,23.63,104,43.45a111.82,111.82,0,0,1,21.94,42.57c27-26.73,50.8-37,70.87-30.52,37.69,12.19,49.09,80.22,49.2,80.9a.54.54,0,0,1-.12.42A.51.51,0,0,1,603.09,448.38Zm-351.58-1h351c-1.21-6.72-13.17-68.11-48.41-79.49-19.84-6.42-43.55,4-70.49,30.92a.51.51,0,0,1-.86-.26c0-.22-4.42-21.79-22-43.08-16.19-19.63-47.22-43-103.16-43-27.83,0-50.81,9-68.3,26.79C252.61,376.46,251.53,441,251.51,447.35Z"/><path class="cls-1" d="M660.51,382.85a.9.9,0,0,1-.23,0,1,1,0,0,1-.77-1.23c.15-.61,3.59-15.15,13.59-18.21,5.53-1.69,11.86.5,18.84,6.51.29-3.73,1.62-11.1,7.53-14.88s15-2.82,26.69,3.09a1,1,0,0,1-.92,1.83c-11-5.57-19.3-6.64-24.67-3.2-7,4.46-6.66,15.24-6.66,15.35a1,1,0,0,1-.59,1,1,1,0,0,1-1.12-.19c-7.07-6.59-13.29-9.12-18.5-7.53-8.87,2.71-12.16,16.58-12.2,16.72A1,1,0,0,1,660.51,382.85Z"/><path class="cls-1" d="M1066.37,431a1,1,0,0,1-.89-.52c-6-10.75-12.32-16.27-18.7-16.41h-.24c-8.15,0-13.78,8.95-13.84,9a1,1,0,0,1-1.86-.3c-2.19-9.42-5.95-15-11.16-16.57-8.89-2.69-19.34,7-19.45,7.09a1,1,0,1,1-1.39-1.49c.46-.44,11.43-10.59,21.43-7.55,5.53,1.67,9.57,7,12,15.91,2.32-2.94,7.51-8.31,14.55-8.16s14,6,20.43,17.45a1,1,0,0,1-.39,1.39A1,1,0,0,1,1066.37,431Z"/><path class="cls-2" d="M1067.36,650.37,1050.5,754.21l0,0c9.3,9.31-.35,22.13-12.36,16.26a21.36,21.36,0,0,1-6.94-5.64C1015.63,746.23,1043.51,662,1043.51,662Z"/><path class="cls-1" d="M1044.17,772.49a14.08,14.08,0,0,1-6.24-1.55,21.91,21.91,0,0,1-7.1-5.76c-6.57-7.85-6.51-27.65.19-58.86,5-23.16,11.94-44.31,12-44.52a.5.5,0,0,1,.26-.29l23.84-11.6a.53.53,0,0,1,.53.05.54.54,0,0,1,.2.5L1051.05,754c5.07,5.22,4.18,10.84,1.85,14.1A10.64,10.64,0,0,1,1044.17,772.49Zm-.24-110.16c-1.51,4.64-27.18,84.44-12.32,102.19a21,21,0,0,0,6.77,5.51c6.1,3,11.27.9,13.69-2.49,2.12-3,2.89-8.14-1.91-12.95a.56.56,0,0,1-.16-.46l16.7-102.87Z"/><path class="cls-1" d="M1022.11,742.25l5.36-29.58a278.06,278.06,0,0,1,23.07-71l4.15-8.61,14.7,13.18L1057.31,751Z"/><path class="cls-1" d="M1057.31,751.48l-.12,0-35.2-8.72a.5.5,0,0,1-.38-.58l5.36-29.59a278.22,278.22,0,0,1,23.11-71.17l4.15-8.61a.49.49,0,0,1,.36-.28.5.5,0,0,1,.44.12l14.7,13.18a.5.5,0,0,1,.17.44L1057.82,751a.52.52,0,0,1-.22.37A.48.48,0,0,1,1057.31,751.48Zm-34.61-9.61,34.17,8.46,12-103.93-14-12.56-3.85,8a277.44,277.44,0,0,0-23,70.92Z"/><polygon class="cls-2" points="1052.58 848.18 1056.33 939.74 1062.02 939.74 1072.47 847.25 1052.58 848.18"/><path class="cls-1" d="M1062,940.25h-5.69a.52.52,0,0,1-.51-.49l-3.75-91.56a.51.51,0,0,1,.49-.53l19.89-.93a.44.44,0,0,1,.39.16.53.53,0,0,1,.14.4l-10.45,92.49A.52.52,0,0,1,1062,940.25Zm-5.2-1h4.75l10.33-91.45-18.79.88Z"/><polygon class="cls-1" points="1034.14 945.95 1062.53 945.95 1062.29 939.74 1056.6 939.74 1034.14 945.95"/><path class="cls-1" d="M1062.53,946.46h-28.39a.51.51,0,0,1-.13-1l22.46-6.21h5.82a.5.5,0,0,1,.51.49l.24,6.21a.51.51,0,0,1-.15.37A.5.5,0,0,1,1062.53,946.46Zm-24.62-1H1062l-.2-5.19h-5.13Z"/><polygon class="cls-2" points="1123.69 939.74 1125.38 847.25 1105.49 848.18 1118 939.74 1123.69 939.74"/><path class="cls-1" d="M1123.69,940.25H1118a.51.51,0,0,1-.5-.44L1105,848.25a.48.48,0,0,1,.12-.4.47.47,0,0,1,.36-.18l19.89-.93a.48.48,0,0,1,.38.14.52.52,0,0,1,.16.37l-1.69,92.5A.51.51,0,0,1,1123.69,940.25Zm-5.24-1h4.74l1.67-91.45-18.79.88Z"/><path class="cls-2" d="M1106.92,650l11.91,104.52,0,0c-9.73,8.86-.7,22.12,11.58,16.82a21.24,21.24,0,0,0,7.2-5.3c16.45-17.86-7.4-103.35-7.4-103.35Z"/><path class="cls-1" d="M1124.87,773.05a10.71,10.71,0,0,1-9.1-4.77c-2.17-3.37-2.79-9,2.52-14L1106.42,650a.5.5,0,0,1,.22-.48.51.51,0,0,1,.53,0l23.26,12.71a.51.51,0,0,1,.25.31c.06.22,6,21.67,9.88,45,5.22,31.5,4.34,51.28-2.59,58.81a21.88,21.88,0,0,1-7.37,5.42A14.45,14.45,0,0,1,1124.87,773.05Zm-17.33-122.17,11.8,103.55a.5.5,0,0,1-.16.43c-5,4.6-4.53,9.8-2.55,12.86,2.26,3.5,7.33,5.82,13.56,3.13a21,21,0,0,0,7-5.17c15.68-17-6.18-98-7.46-102.67Z"/><path class="cls-1" d="M1147.76,743.88l-4-29.81A277.66,277.66,0,0,0,1124.14,642l-3.74-8.8-15.31,12.47v40.22l17.66-11.32,2.4,76.33Z"/><path class="cls-1" d="M1125.15,751.43a.51.51,0,0,1-.29-.1.5.5,0,0,1-.22-.4l-2.38-75.42-16.89,10.83a.51.51,0,0,1-.52,0,.5.5,0,0,1-.27-.45V645.69a.53.53,0,0,1,.19-.4l15.31-12.47a.51.51,0,0,1,.79.2l3.74,8.8A278.63,278.63,0,0,1,1144.32,714l4,29.8a.5.5,0,0,1-.36.55l-22.61,7Zm-2.4-77.35a.46.46,0,0,1,.23.06.5.5,0,0,1,.28.43l2.38,75.66,21.56-6.71-3.89-29.38a277.36,277.36,0,0,0-19.64-71.92L1120.2,634l-14.6,11.89V685l16.87-10.82A.54.54,0,0,1,1122.75,674.08Z"/><polygon class="cls-3" points="1048.08 905.1 1070.75 905.1 1087.14 718.16 1099.03 826.12 1106.97 905.1 1127.09 905.1 1124.91 829.63 1124.91 694.25 1049.65 694.25 1048.08 905.1"/><path class="cls-1" d="M1127.09,905.61H1107a.5.5,0,0,1-.51-.46l-7.94-79L1087.2,723.35l-16,181.8a.5.5,0,0,1-.5.46h-22.67a.51.51,0,0,1-.36-.15.53.53,0,0,1-.15-.36l1.57-210.86a.5.5,0,0,1,.51-.5h75.26a.51.51,0,0,1,.51.51V829.63l2.18,75.46a.51.51,0,0,1-.15.37A.48.48,0,0,1,1127.09,905.61Zm-19.65-1h19.12l-2.16-75V694.76h-74.24l-1.56,209.83h21.68l16.36-186.47a.52.52,0,0,1,.5-.47h0a.52.52,0,0,1,.51.46l11.89,108Z"/><path class="cls-1" d="M1049.65,651.24v43h0A84.65,84.65,0,0,0,1107.3,699l17.62-4.79v-43a37.64,37.64,0,0,0-75-4.19A38.79,38.79,0,0,0,1049.65,651.24Z"/><path class="cls-1" d="M1085.09,702.52a85.2,85.2,0,0,1-35.65-7.81.51.51,0,0,1-.3-.46v-43a40.05,40.05,0,0,1,.23-4.25,38.15,38.15,0,0,1,76.06,4.25v43a.51.51,0,0,1-.38.49l-17.61,4.79A84.91,84.91,0,0,1,1085.09,702.52Zm-34.93-8.6a84.29,84.29,0,0,0,57,4.63l17.24-4.69V651.24a37.13,37.13,0,0,0-74-4.13,37.55,37.55,0,0,0-.23,4.13Z"/><polygon class="cls-1" points="1095.82 945.95 1124.2 945.95 1123.96 939.74 1118.28 939.74 1095.82 945.95"/><path class="cls-1" d="M1124.2,946.46h-28.38a.51.51,0,0,1-.51-.45.5.5,0,0,1,.37-.56l22.46-6.21H1124a.51.51,0,0,1,.51.49l.23,6.21a.51.51,0,0,1-.15.37A.48.48,0,0,1,1124.2,946.46Zm-24.62-1h24.09l-.2-5.19h-5.12Z"/><path class="cls-2" d="M1090.71,623l3.49-6.3-13-21h-11.61l8,22.56.19,2A6.9,6.9,0,0,0,1090.71,623Z"/><path class="cls-1" d="M1084.75,627.09a7.79,7.79,0,0,1-1.58-.17,7.29,7.29,0,0,1-5.88-6.54l-.19-2-7.95-22.5a.5.5,0,0,1,.06-.46.51.51,0,0,1,.42-.22h11.61a.52.52,0,0,1,.43.25l13,21a.49.49,0,0,1,0,.51l-3.49,6.3h0A7.28,7.28,0,0,1,1084.75,627.09Zm-14.4-30.84,7.74,21.88a.5.5,0,0,1,0,.12l.2,2a6.4,6.4,0,0,0,12,2.48l3.34-6L1081,596.25ZM1090.71,623h0Z"/><circle class="cls-2" cx="1077.61" cy="593.17" r="16.59"/><path class="cls-1" d="M1077.61,610.28a17.11,17.11,0,1,1,17.1-17.11A17.13,17.13,0,0,1,1077.61,610.28Zm0-33.19a16.09,16.09,0,1,0,16.08,16.08A16.1,16.1,0,0,0,1077.61,577.09Z"/><path class="cls-1" d="M1087.14,718.68a.46.46,0,0,1-.27-.09l-5.34-3.46a.5.5,0,0,1-.15-.7.51.51,0,0,1,.71-.15l5.33,3.46a.5.5,0,0,1,.15.7A.51.51,0,0,1,1087.14,718.68Z"/><path class="cls-1" d="M1077.6,528.15a42.19,42.19,0,0,0-2.06,84.32l-1.06-3a16.56,16.56,0,0,1-11.93-23.27c12.24,6.69,25,0,25,0l1.41,14.57s.54-6.83,5.2-7.61h0a16.58,16.58,0,0,1-6.44,13.12l2.63,4.26a42.2,42.2,0,0,0-12.79-82.41Z"/><path class="cls-1" d="M1075.54,613h0a42.65,42.65,0,1,1,15-1.94.5.5,0,0,1-.58-.22l-2.64-4.25a.53.53,0,0,1,.12-.68,15.91,15.91,0,0,0,6.23-12.07c-3.65,1.19-4.16,6.94-4.16,7a.51.51,0,0,1-.51.47h0a.5.5,0,0,1-.51-.46L1087.15,587c-2.79,1.24-13.77,5.41-24.36-.06A16.08,16.08,0,0,0,1074.58,609a.53.53,0,0,1,.38.33l1.06,3a.49.49,0,0,1-.07.47A.51.51,0,0,1,1075.54,613Zm2.06-84.32a41.68,41.68,0,0,0-2.8,83.26l-.7-2a17.15,17.15,0,0,1-13.61-16.75,16.9,16.9,0,0,1,1.6-7.18.5.5,0,0,1,.3-.27.47.47,0,0,1,.4,0c11.85,6.46,24.43.05,24.56,0a.51.51,0,0,1,.48,0,.49.49,0,0,1,.26.4l1.11,11.38c.71-2,2.14-4.41,4.91-4.87a.57.57,0,0,1,.42.11.53.53,0,0,1,.18.39,17,17,0,0,1-6.28,13.24l2.18,3.54a41.69,41.69,0,0,0-13-81.29Z"/><path class="cls-2" d="M1124.91,694.76a.52.52,0,0,1-.51-.46l-5.12-49.47a.5.5,0,0,1,.45-.56.51.51,0,0,1,.57.45l5.12,49.47a.51.51,0,0,1-.46.56Z"/><path class="cls-2" d="M1080.09,685.76h0a.52.52,0,0,1-.47-.55l4.65-54.78a.49.49,0,0,1,.24-.39l5.19-3.13a.51.51,0,0,1,.64.08l5.07,5.32,4.92-11.28-4-5.95a.49.49,0,0,1,.14-.7.51.51,0,0,1,.71.13l4.2,6.18a.5.5,0,0,1,0,.49L1096,633.42a.51.51,0,0,1-.38.3.52.52,0,0,1-.46-.15l-5.32-5.58-4.62,2.79-4.62,54.51A.51.51,0,0,1,1080.09,685.76Z"/><path class="cls-2" d="M1081.81,636.9a.51.51,0,0,1-.47-.31l-4-9.28-10.52,6.34a.51.51,0,0,1-.77-.51l2.38-14.92a.51.51,0,1,1,1,.16l-2.2,13.83,10.08-6.08a.52.52,0,0,1,.42,0,.48.48,0,0,1,.31.28l4.21,9.81a.51.51,0,0,1-.27.67A.53.53,0,0,1,1081.81,636.9Z"/><path class="cls-2" d="M1104.78,667.63a5.73,5.73,0,0,1-4.39-1.9c-3.62-3.93-3-12.61-2.93-13a.51.51,0,0,1,.55-.47.52.52,0,0,1,.47.55c0,.09-.66,8.61,2.67,12.21a4.67,4.67,0,0,0,3.63,1.57,6.37,6.37,0,0,0,4.8-1.85c2.46-2.54,2.35-6.88,2.34-6.93a.53.53,0,0,1,.5-.53.52.52,0,0,1,.53.5c0,.19.13,4.81-2.63,7.67A7.37,7.37,0,0,1,1104.78,667.63Z"/><line class="cls-2" x1="1115.43" y1="696.83" x2="1119.79" y2="905.1"/><path class="cls-1" d="M1119.79,905.61a.5.5,0,0,1-.51-.5l-4.36-208.27a.51.51,0,0,1,.5-.52.52.52,0,0,1,.52.5l4.36,208.27a.51.51,0,0,1-.5.52Z"/><path class="cls-2" d="M1049.65,694.76a.51.51,0,0,1-.51-.51v-38a.51.51,0,0,1,1,0v38A.51.51,0,0,1,1049.65,694.76Z"/></svg>